<svg xmlns="http://www.w3.org/2000/svg" width="46.57mm" height="11.71mm" viewBox="0 0 132 33.18"><defs><style>.a{fill:#fff;}.b{fill:#c93538;}.c{fill:#232940;}</style></defs><title>british-airways</title><path class="a" d="M0,3.6l0,.08.34.11C3.88,4.77,7.4,5.84,11,6.73,16.46,8.12,22,9.17,27.64,10c4.73.7,9.48,1.28,14.25,1.51,5.7.27,11.4.49,17.1.59,15.3.25,30.59,0,45.89-.18a136.42,136.42,0,0,1,18.29.53,12.91,12.91,0,0,1,3.8.88A12.65,12.65,0,0,1,131.55,17l.35.44.09,0c-.18-.52-.34-1-.54-1.54a33.09,33.09,0,0,0-4.87-8.26,15.2,15.2,0,0,0-4.09-3.81A20.65,20.65,0,0,0,117,1.67,36.92,36.92,0,0,0,109.33.31C106,.19,102.75,0,99.46,0,94.1,0,88.74.17,83.38.32,79.68.42,76,.6,72.27.74L58.35,1.3l-11.28.44-14,.55-11.24.44L5.81,3.36ZM129.41,23.21c-1-1.26-2-2.53-3.06-3.72a4.28,4.28,0,0,0-2.61-1.4,69.74,69.74,0,0,0-8.81-.66,1.3,1.3,0,0,0-.59.11,55,55,0,0,1-7.08,2.94c-6.82,2.36-13.66,4.69-20.49,7l-.49.18.43.14c7.64,2,15.32,3.84,23.07,5.35a1,1,0,0,0,.52,0,101.84,101.84,0,0,0,14.77-6.86A28.12,28.12,0,0,0,129.41,23.21Z"/><path class="b" d="M0,3.6l5.78-.23,16.07-.64,11.24-.44,14-.55L58.35,1.3,72.27.74C76,.6,79.68.42,83.38.32,88.74.17,94.1,0,99.46,0c3.29,0,6.58.19,9.87.31A36.92,36.92,0,0,1,117,1.67a20.65,20.65,0,0,1,5.54,2.09,15.2,15.2,0,0,1,4.09,3.81,33.09,33.09,0,0,1,4.87,8.26c.2.51.36,1,.54,1.54l-.09,0-.35-.44A12.65,12.65,0,0,0,127,13.34a12.91,12.91,0,0,0-3.8-.88,136.42,136.42,0,0,0-18.29-.53c-15.3.15-30.59.43-45.89.18-5.7-.09-11.41-.31-17.1-.59-4.77-.23-9.52-.8-14.25-1.51C22,9.17,16.46,8.12,11,6.73,7.4,5.84,3.88,4.77.34,3.79L0,3.68Z"/><path class="c" d="M129.41,23.21a28.12,28.12,0,0,1-4.36,3.05,101.84,101.84,0,0,1-14.77,6.86,1,1,0,0,1-.52,0C102,31.66,94.34,29.82,86.7,27.82l-.43-.14.49-.18c6.83-2.34,13.67-4.66,20.49-7a55,55,0,0,0,7.08-2.94,1.3,1.3,0,0,1,.59-.11,69.74,69.74,0,0,1,8.81.66,4.28,4.28,0,0,1,2.61,1.4C127.41,20.68,128.38,21.95,129.41,23.21Z"/></svg>