<svg xmlns="http://www.w3.org/2000/svg" width="30mm" height="30mm" viewBox="0 0 85.04 85.04"><defs><style>.a{fill:#fff;}.b{opacity:0.5;}</style></defs><title>plus</title><path class="a" d="M42.52,0A42.52,42.52,0,1,0,85,42.52,42.52,42.52,0,0,0,42.52,0Zm0,80.33A37.81,37.81,0,1,1,80.32,42.52,37.85,37.85,0,0,1,42.52,80.32Z" transform="translate(0 0)"/><path class="b" d="M80.32,42.52A37.81,37.81,0,1,1,42.52,4.71,37.85,37.85,0,0,1,80.32,42.52Z" transform="translate(0 0)"/><polygon class="a" points="63.78 40.81 44.23 40.81 44.23 21.26 40.81 21.26 40.81 40.81 21.26 40.81 21.26 44.23 40.81 44.23 40.81 63.78 44.23 63.78 44.23 44.23 63.78 44.23 63.78 40.81"/></svg>