<svg xmlns="http://www.w3.org/2000/svg" xmlns:xlink="http://www.w3.org/1999/xlink" width="125.27mm" height="19.33mm" viewBox="0 0 355.1 54.79"><defs><style>.a{fill:url(#a);}.b{fill:#fff;}.c{fill:#e3051a;}</style><linearGradient id="a" x1="339.94" y1="-739.11" x2="321.8" y2="-770.53" gradientTransform="matrix(1, 0, 0, -1, 0, -730.72)" gradientUnits="userSpaceOnUse"><stop offset="0" stop-color="#4565ad"/><stop offset="0.11" stop-color="#7687c3"/><stop offset="0.24" stop-color="#a8b0da"/><stop offset="0.35" stop-color="#cccfea"/><stop offset="0.44" stop-color="#e1e3f3"/><stop offset="0.5" stop-color="#e9eaf7"/><stop offset="0.75" stop-color="#f9f9fd"/><stop offset="1" stop-color="#f9f9fd"/></linearGradient></defs><title>british-airways</title><path class="a" d="M345.1,13.3c-4,4-12.9,7.5-17.2,9.1-5.9,2.2-8.5,3-11.9,4.1-3.7,1.2-11.2,3.5-11.2,3.5a185.77,185.77,0,0,0,26.5,6,87.2,87.2,0,0,0,13.2-5.9c4.4-2.2,6.5-3.7,8.1-5.2a7.6,7.6,0,0,0,2.4-4,7.75,7.75,0,0,0,.1-.9v-.5a.58.58,0,0,0-.1-.4s-.1-.5-.2-.8a5.56,5.56,0,0,0-1.4-2,13.88,13.88,0,0,0-4.9-2.7c-1.2-.4-3-.8-3-.8Z" transform="translate(0 -0.01)"/><path class="b" d="M0,54.4a2.42,2.42,0,0,0,1.1-2.2V32.4A2.42,2.42,0,0,0,0,30.2H9.5c4.2,0,8.3,1.7,8.3,6.5,0,2.5-2.2,4.5-4.6,5,3.4,0,6.8,2.1,6.8,5.9,0,5.4-5.7,6.8-9.7,6.8ZM7.7,32.3a11.8,11.8,0,0,0-1.6.1v8.5h1c2.9,0,5.7-.9,5.7-4.3S10.5,32.3,7.7,32.3ZM8.3,43a17.73,17.73,0,0,0-2.2.1V52a17.33,17.33,0,0,0,3.2.3c2.4,0,4.9-1.1,4.9-4.8S11.3,43,8.3,43Zm21-10.7c-.4,0-.8.1-1.2.1v8.4c.4,0,.8.1,1.1.1,2.7,0,4.7-1.5,4.7-4.5S32,32.3,29.3,32.3ZM41.5,54.5a13.2,13.2,0,0,1-2.8-.2c-1.6-.5-3.9-4.2-4.8-5.6-1.4-2.4-2.6-5.6-5.8-5.7v9.2a2.66,2.66,0,0,0,1.1,2.2H22a2.32,2.32,0,0,0,1.1-2.2V32.4A2.66,2.66,0,0,0,22,30.2h8.7c3.8,0,8.6,1.5,8.6,6,0,3.8-3.2,5.8-6.7,5.8,5,0,8,11.8,13.5,11.9A18.16,18.16,0,0,1,41.5,54.5Zm5-.1a2.44,2.44,0,0,0,1.2-2.2V32.4a2.44,2.44,0,0,0-1.2-2.2h7.4a2.44,2.44,0,0,0-1.2,2.2V52.2a2.44,2.44,0,0,0,1.2,2.2Zm16.1,0a2.4,2.4,0,0,0,1.2-2.2V33H58.5a7.26,7.26,0,0,0-3.8.8l1.7-3.6H74.1a20.75,20.75,0,0,0,4.3-.3c-.7,1.8-2.7,3.2-3.8,3.2-1.4,0-3.7-.1-5.7-.1V52.3a2.51,2.51,0,0,0,1.2,2.2l-7.5-.1Zm16.6,0a2.44,2.44,0,0,0,1.2-2.2V32.4a2.44,2.44,0,0,0-1.2-2.2h7.4a2.44,2.44,0,0,0-1.2,2.2V52.2a2.44,2.44,0,0,0,1.2,2.2Zm22-5.5c0-4.6-10.8-5.6-10.8-13,0-4.6,4.3-6,8.1-6a15.49,15.49,0,0,1,5.7.9l.3,4.5a6.45,6.45,0,0,0-5.6-3.4c-1.8,0-3.6.9-3.6,2.9,0,4.8,11,5.9,11,12.9,0,5.1-4.4,7.1-8.9,7.1-2.3,0-5.5-.4-7.5-1.8a21.05,21.05,0,0,1-.2-2.5c0-1,.1-2,.2-3a7.79,7.79,0,0,0,6.9,5C99.4,52.6,101.2,51.5,101.2,48.9Zm23.2,5.5a2.47,2.47,0,0,0,1.1-2.2v-9c-1.3-.1-3.1-.2-5.1-.2s-3.9.1-5.2.2v9a2.39,2.39,0,0,0,1.1,2.2h-7.2a2.47,2.47,0,0,0,1.1-2.2V32.4a2.61,2.61,0,0,0-1.1-2.2h7.2a2.61,2.61,0,0,0-1.1,2.2v8.1c1.3.1,3.1.2,5.2.2s3.8-.1,5.1-.2V32.4a2.61,2.61,0,0,0-1.1-2.2h7.2a2.61,2.61,0,0,0-1.1,2.2V52.2a2.39,2.39,0,0,0,1.1,2.2Z" transform="translate(0 -0.01)"/><path class="b" d="M158.1,54.4a1,1,0,0,0,.4-.8c0-.1-.1-.4-.2-.8,0,0-2-5.4-2.2-6a34.64,34.64,0,0,0-4.6-.2,31,31,0,0,0-4.3.2c-.2.5-2.3,5.9-2.3,5.9a4.88,4.88,0,0,0-.4,1.1c0,.4.3.5.6.7h-4.9a3.75,3.75,0,0,0,1.6-1.9l8-20.6v-.3a1.69,1.69,0,0,0-.9-1.4h6.3l8.1,22.3a3.82,3.82,0,0,0,1.6,1.9l-6.8-.1Zm-6.3-19.6-3.7,9.4c1.1.1,2.2.1,3.3.1,1.3,0,2.5,0,3.8-.1Zm14.5,19.6a2.44,2.44,0,0,0,1.2-2.2V32.4a2.44,2.44,0,0,0-1.2-2.2h7.4a2.44,2.44,0,0,0-1.2,2.2V52.2a2.44,2.44,0,0,0,1.2,2.2ZM185,32.3c-.4,0-.8.1-1.2.1v8.4c.4,0,.7.1,1.1.1,2.7,0,4.7-1.5,4.7-4.5S187.7,32.3,185,32.3Zm12.8,22.2a13.2,13.2,0,0,1-2.8-.2c-1.6-.5-3.9-4.2-4.8-5.6-1.4-2.4-3.2-5.7-6.4-5.7v9.2a2.66,2.66,0,0,0,1.1,2.2h-7.3a2.32,2.32,0,0,0,1.1-2.2V32.4a2.66,2.66,0,0,0-1.1-2.2h8.8c3.8,0,8.5,1.5,8.5,6,0,3.8-3.5,5.8-6.1,5.8,5.2.3,8.4,11.9,13.5,11.9A16.31,16.31,0,0,1,197.8,54.5Zm30.2-22-7.3,21.8a3,3,0,0,1-1.5-.4,20.56,20.56,0,0,1-2.3-4.7l-3.3-8.4-4.8,13.5h-2.3l-8.2-21.9a4.75,4.75,0,0,0-1.9-2.3h7.1a1.1,1.1,0,0,0-.5,1,2.35,2.35,0,0,0,.2.8l5.4,14.5,5.7-16.3,6.3,15.7,4.8-14.2a3.09,3.09,0,0,0,.2-.8.75.75,0,0,0-.4-.7h4.7A4.06,4.06,0,0,0,228,32.5Zm8.8,2.3-3.7,9.4c1.1.1,2.2.1,3.3.1,1.3,0,2.5,0,3.7-.1Zm6.3,19.6a1,1,0,0,0,.4-.8c0-.1-.1-.4-.2-.8,0,0-2-5.4-2.2-6a35.4,35.4,0,0,0-4.6-.2,31,31,0,0,0-4.3.2c-.2.5-2.3,5.9-2.3,5.9a4.88,4.88,0,0,0-.4,1.1c0,.4.3.5.6.7h-4.9a3.75,3.75,0,0,0,1.6-1.9l8-20.6v-.3a1.69,1.69,0,0,0-.9-1.4h6.3l8.1,22.3a4.39,4.39,0,0,0,1.6,1.9l-6.8-.1Zm21.8-21.7-5.7,10v9.4a2.42,2.42,0,0,0,1.1,2.2h-7.1a2.66,2.66,0,0,0,1.1-2.2V42.6l-5-8c-.4-.7-2.5-4.2-5.1-4.2a14.6,14.6,0,0,1,4.2-.7c2.3,0,3.5.2,4.9,2.5l4.6,7.3,4-7.1a5.73,5.73,0,0,0,.7-1.6.82.82,0,0,0-.5-.8h5.1A11.78,11.78,0,0,0,264.9,32.7Zm13.4,16.2c0-4.6-10.8-5.6-10.8-13,0-4.6,4.3-6,8.1-6a15.83,15.83,0,0,1,5.7.9l.3,4.5a6.45,6.45,0,0,0-5.6-3.4c-1.8,0-3.6.9-3.6,2.9,0,4.8,11,5.9,11,12.9,0,5.1-4.4,7.1-8.9,7.1-2.3,0-5.5-.4-7.5-1.8a21.05,21.05,0,0,1-.2-2.5c0-1,.1-2,.2-3a7.79,7.79,0,0,0,6.9,5C276.5,52.6,278.3,51.5,278.3,48.9Z" transform="translate(0 -0.01)"/><path class="c" d="M355,20a3.75,3.75,0,0,0-.1-.8,6.9,6.9,0,0,0-.4-1c-.3-.4-.6-.8-1.1-1.4a8.54,8.54,0,0,0-1.4-1.1,17.65,17.65,0,0,0-7.3-2.5,64.69,64.69,0,0,0-8.5-.4c-1.4,0-10.3.1-12.6.1-10.2.2-22.7.2-26,.2-33.8.2-48.5-.6-64.9-3.9A161.59,161.59,0,0,1,211,3.9c12.3-.4,84-3.4,97-3.7,8.6-.2,14.6-.3,19.5,0,2.5.1,4.8.4,7.7.8a35.6,35.6,0,0,1,6.4,1.7c2.9,1.1,5.4,2.6,6.6,4.2a7.22,7.22,0,0,1,.8,1c.5.8,1.2,1.7,1.4,2a40.64,40.64,0,0,1,2.9,5c.3.6.6,1.3.9,1.9a7.91,7.91,0,0,1,.5,1.3,5.28,5.28,0,0,1,.2,1.4Z" transform="translate(0 -0.01)"/></svg>